<svg xmlns="http://www.w3.org/2000/svg" viewBox="0 0 300 240" role="img" aria-label="Açaí com paçoca"><title>Açaí com paçoca</title><g>
<ellipse cx="150" cy="226" rx="104" ry="10" fill="#2B1F33" opacity=".08"/>
<ellipse cx="150" cy="108" rx="122" ry="34" fill="#7DA62A"/>
<ellipse cx="150" cy="111" rx="110" ry="27" fill="#4A1D6A"/>
<path d="M70 104 q 30 -14 70 -4 t 80 0" fill="none" stroke="#6A3592" stroke-width="5" stroke-linecap="round" opacity=".7"/>
<ellipse cx="223.7" cy="103.9" rx="15.1" ry="8.9" fill="#F6E7A6" stroke="#E0C66C" stroke-width="2.1"/><ellipse cx="130.6" cy="99.1" rx="15.1" ry="8.9" fill="#F6E7A6" stroke="#E0C66C" stroke-width="2.1"/><ellipse cx="79.7" cy="120.8" rx="15.1" ry="8.9" fill="#F6E7A6" stroke="#E0C66C" stroke-width="2.1"/><ellipse cx="198.6" cy="98.5" rx="15.1" ry="8.9" fill="#F6E7A6" stroke="#E0C66C" stroke-width="2.1"/><ellipse cx="189.8" cy="115.9" rx="15.1" ry="8.9" fill="#F6E7A6" stroke="#E0C66C" stroke-width="2.1"/><rect x="190.8" y="111.5" width="8.3" height="6.9" rx="1.4" fill="#D7A465" transform="rotate(88 190.8 111.5)"/><rect x="155.8" y="116.4" width="8.3" height="6.9" rx="1.4" fill="#D7A465" transform="rotate(9 155.8 116.4)"/><rect x="149.1" y="93.5" width="8.3" height="6.9" rx="1.4" fill="#D7A465" transform="rotate(41 149.1 93.5)"/><rect x="182.4" y="122.1" width="8.3" height="6.9" rx="1.4" fill="#D7A465" transform="rotate(12 182.4 122.1)"/><rect x="164" y="113.4" width="8.3" height="6.9" rx="1.4" fill="#D7A465" transform="rotate(84 164 113.4)"/><rect x="204.6" y="101.3" width="8.3" height="6.9" rx="1.4" fill="#D7A465" transform="rotate(88 204.6 101.3)"/><rect x="135.4" y="127.3" width="8.3" height="6.9" rx="1.4" fill="#D7A465" transform="rotate(52 135.4 127.3)"/><rect x="78.1" y="105.7" width="8.3" height="6.9" rx="1.4" fill="#D7A465" transform="rotate(81 78.1 105.7)"/><rect x="113.4" y="102.8" width="8.3" height="6.9" rx="1.4" fill="#D7A465" transform="rotate(30 113.4 102.8)"/><rect x="213.4" y="113.3" width="8.3" height="6.9" rx="1.4" fill="#D7A465" transform="rotate(59 213.4 113.3)"/><rect x="138.4" y="101.7" width="8.3" height="6.9" rx="1.4" fill="#D7A465" transform="rotate(4 138.4 101.7)"/><rect x="74.8" y="121.1" width="8.3" height="6.9" rx="1.4" fill="#D7A465" transform="rotate(17 74.8 121.1)"/><circle cx="137.2" cy="113.4" r="2.5" fill="#FFFFFF" opacity=".9"/><circle cx="74.6" cy="116.1" r="2.5" fill="#FFFFFF" opacity=".9"/><circle cx="177.4" cy="109.5" r="2.5" fill="#FFFFFF" opacity=".9"/><circle cx="170.3" cy="115.8" r="2.5" fill="#FFFFFF" opacity=".9"/><circle cx="197.9" cy="105.5" r="2.5" fill="#FFFFFF" opacity=".9"/><circle cx="206.2" cy="96.1" r="2.5" fill="#FFFFFF" opacity=".9"/><circle cx="221.6" cy="102.1" r="2.5" fill="#FFFFFF" opacity=".9"/><circle cx="160.4" cy="110.4" r="2.5" fill="#FFFFFF" opacity=".9"/><circle cx="151.8" cy="102.7" r="2.5" fill="#FFFFFF" opacity=".9"/><circle cx="119.2" cy="104.4" r="2.5" fill="#FFFFFF" opacity=".9"/><circle cx="58.9" cy="108.5" r="2.5" fill="#FFFFFF" opacity=".9"/><circle cx="91.9" cy="121.7" r="2.5" fill="#FFFFFF" opacity=".9"/><circle cx="221.5" cy="121.5" r="2.5" fill="#FFFFFF" opacity=".9"/><circle cx="150.1" cy="105.3" r="2.5" fill="#FFFFFF" opacity=".9"/><circle cx="143.4" cy="115.3" r="2.5" fill="#FFFFFF" opacity=".9"/><circle cx="166.6" cy="94.9" r="2.5" fill="#FFFFFF" opacity=".9"/><circle cx="110.6" cy="120" r="2.5" fill="#FFFFFF" opacity=".9"/><circle cx="101.5" cy="128.2" r="2.5" fill="#FFFFFF" opacity=".9"/><circle cx="218.6" cy="96.3" r="2.5" fill="#FFFFFF" opacity=".9"/><circle cx="143.5" cy="109.5" r="2.5" fill="#FFFFFF" opacity=".9"/><circle cx="184.7" cy="103.7" r="2.5" fill="#FFFFFF" opacity=".9"/><circle cx="142.7" cy="103.6" r="2.5" fill="#FFFFFF" opacity=".9"/><circle cx="148.4" cy="117.9" r="2.5" fill="#FFFFFF" opacity=".9"/><circle cx="155.5" cy="111.2" r="2.5" fill="#FFFFFF" opacity=".9"/><circle cx="145.9" cy="130.4" r="2.5" fill="#FFFFFF" opacity=".9"/><circle cx="157.2" cy="106.5" r="2.5" fill="#FFFFFF" opacity=".9"/><circle cx="206.4" cy="104.7" r="2.5" fill="#FFFFFF" opacity=".9"/><circle cx="138.7" cy="85.5" r="2.5" fill="#FFFFFF" opacity=".9"/>
<path d="M28 108 A122 34 0 0 0 272 108 C 270 182 222 222 150 224 C 78 222 30 182 28 108 Z" fill="#B8E04A"/>
<path d="M28 108 A122 34 0 0 0 272 108" fill="none" stroke="#D3EF86" stroke-width="6"/>
<path d="M60 170 Q 150 196 240 170" fill="none" stroke="#9CC43A" stroke-width="5" stroke-linecap="round"/>
</g></svg>
