<svg xmlns="http://www.w3.org/2000/svg" viewBox="0 0 300 240" role="img" aria-label="Bowl tropical"><title>Bowl tropical</title><g>
<ellipse cx="150" cy="226" rx="104" ry="10" fill="#2B1F33" opacity=".08"/>
<ellipse cx="150" cy="108" rx="122" ry="34" fill="#7DA62A"/>
<ellipse cx="150" cy="111" rx="110" ry="27" fill="#4A1D6A"/>
<path d="M70 104 q 30 -14 70 -4 t 80 0" fill="none" stroke="#6A3592" stroke-width="5" stroke-linecap="round" opacity=".7"/>
<circle cx="183.4" cy="98.4" r="7.5" fill="#B07A3C"/><circle cx="128.3" cy="98.3" r="5.7" fill="#CC9350"/><circle cx="188.8" cy="122.7" r="6.3" fill="#CC9350"/><circle cx="124.5" cy="123.5" r="6.8" fill="#B07A3C"/><circle cx="127.9" cy="100" r="7.8" fill="#B07A3C"/><circle cx="169.2" cy="99.2" r="5.6" fill="#CC9350"/><circle cx="162.3" cy="91.4" r="7.1" fill="#B07A3C"/><circle cx="198.9" cy="116.2" r="6.7" fill="#B07A3C"/><circle cx="193.9" cy="105.9" r="7.5" fill="#B07A3C"/><circle cx="202.7" cy="101.8" r="5.3" fill="#CC9350"/><circle cx="237.5" cy="107.3" r="7.8" fill="#B07A3C"/><circle cx="155.2" cy="122.1" r="6.1" fill="#CC9350"/><circle cx="179.4" cy="108.2" r="6.6" fill="#B07A3C"/><circle cx="221.8" cy="124.9" r="7.6" fill="#B07A3C"/><g><ellipse cx="145.5" cy="127.6" rx="13.8" ry="8.9" fill="#7DB83A"/><ellipse cx="145.5" cy="127.6" rx="5.5" ry="3.6" fill="#EFF0C8"/></g><g><ellipse cx="190.5" cy="107.6" rx="13.8" ry="8.9" fill="#7DB83A"/><ellipse cx="190.5" cy="107.6" rx="5.5" ry="3.6" fill="#EFF0C8"/></g><g><ellipse cx="174.3" cy="108.4" rx="13.8" ry="8.9" fill="#7DB83A"/><ellipse cx="174.3" cy="108.4" rx="5.5" ry="3.6" fill="#EFF0C8"/></g><g><ellipse cx="135.7" cy="102.6" rx="13.8" ry="8.9" fill="#7DB83A"/><ellipse cx="135.7" cy="102.6" rx="5.5" ry="3.6" fill="#EFF0C8"/></g><rect x="141" y="102.5" width="9.6" height="2.8" fill="#FFFFFF" transform="rotate(6 141 102.5)"/><rect x="149.5" y="98.9" width="9.6" height="2.8" fill="#FFFFFF" transform="rotate(20 149.5 98.9)"/><rect x="179.5" y="123.6" width="9.6" height="2.8" fill="#FFFFFF" transform="rotate(103 179.5 123.6)"/><rect x="120.1" y="112.5" width="9.6" height="2.8" fill="#FFFFFF" transform="rotate(117 120.1 112.5)"/><rect x="227.8" y="114.5" width="9.6" height="2.8" fill="#FFFFFF" transform="rotate(58 227.8 114.5)"/><rect x="161.4" y="104.9" width="9.6" height="2.8" fill="#FFFFFF" transform="rotate(175 161.4 104.9)"/><rect x="113.1" y="98.4" width="9.6" height="2.8" fill="#FFFFFF" transform="rotate(19 113.1 98.4)"/><rect x="217.7" y="117" width="9.6" height="2.8" fill="#FFFFFF" transform="rotate(72 217.7 117)"/><rect x="202.2" y="119.7" width="9.6" height="2.8" fill="#FFFFFF" transform="rotate(112 202.2 119.7)"/><rect x="135.6" y="121.2" width="9.6" height="2.8" fill="#FFFFFF" transform="rotate(6 135.6 121.2)"/><rect x="132.5" y="97" width="9.6" height="2.8" fill="#FFFFFF" transform="rotate(95 132.5 97)"/><rect x="58.4" y="109.7" width="9.6" height="2.8" fill="#FFFFFF" transform="rotate(158 58.4 109.7)"/><rect x="139.9" y="134.9" width="9.6" height="2.8" fill="#FFFFFF" transform="rotate(134 139.9 134.9)"/><rect x="200.7" y="112" width="9.6" height="2.8" fill="#FFFFFF" transform="rotate(176 200.7 112)"/><rect x="234.5" y="120.2" width="9.6" height="2.8" fill="#FFFFFF" transform="rotate(61 234.5 120.2)"/><rect x="210.5" y="98.8" width="9.6" height="2.8" fill="#FFFFFF" transform="rotate(60 210.5 98.8)"/><rect x="198.6" y="114.2" width="13.8" height="13.8" rx="2.8" fill="#F4A021"/><rect x="97.6" y="104.6" width="13.8" height="13.8" rx="2.8" fill="#F4A021"/><rect x="149.4" y="105.5" width="13.8" height="13.8" rx="2.8" fill="#F4A021"/><rect x="135.5" y="120.6" width="13.8" height="13.8" rx="2.8" fill="#F4A021"/><rect x="99.1" y="123" width="13.8" height="13.8" rx="2.8" fill="#F4A021"/><rect x="139.8" y="126.7" width="13.8" height="13.8" rx="2.8" fill="#F4A021"/>
<path d="M28 108 A122 34 0 0 0 272 108 C 270 182 222 222 150 224 C 78 222 30 182 28 108 Z" fill="#B8E04A"/>
<path d="M28 108 A122 34 0 0 0 272 108" fill="none" stroke="#D3EF86" stroke-width="6"/>
<path d="M60 170 Q 150 196 240 170" fill="none" stroke="#9CC43A" stroke-width="5" stroke-linecap="round"/>
</g></svg>
